<svg width="512" height="512" viewBox="0 0 512 512" fill="none" xmlns="http://www.w3.org/2000/svg">
  <!-- Fondo Oscuro redondeado -->
  <rect width="512" height="512" rx="100" fill="#141414"/>
  
  <!-- Borde dorado fino interior -->
  <rect x="8" y="8" width="496" height="496" rx="92" stroke="url(#goldGrad)" stroke-width="6"/>
  <rect x="14" y="14" width="484" height="484" rx="86" stroke="#AA8C2C" stroke-width="2"/>

  <!-- Logo G vector -->
  <path d="M256 120 C180 120 120 180 120 256 C120 332 180 392 256 392 C320 392 370 345 385 285 L320 285 C310 315 285 332 256 332 C214 332 180 298 180 256 C180 214 214 180 256 180 C280 180 300 192 312 210 L355 167 C330 138 295 120 256 120 Z" fill="url(#goldGrad)"/>
  
  <!-- Flecha subiendo -->
  <path d="M210 256 L380 86 L380 156 L410 156 L410 56 L310 56 L310 86 L360 86 L200 246 Z" fill="url(#goldGrad)"/>
  
  <!-- Detalle interior -->
  <circle cx="256" cy="256" r="16" fill="#F2CA50" />

  <!-- Gradientes -->
  <defs>
    <linearGradient id="goldGrad" x1="0" y1="0" x2="512" y2="512" gradientUnits="userSpaceOnUse">
      <stop offset="0%" stop-color="#F2CA50"/>
      <stop offset="50%" stop-color="#D4AF37"/>
      <stop offset="100%" stop-color="#AA8C2C"/>
    </linearGradient>
  </defs>
</svg>
